<mxfile modified="2022-05-02T00:19:10.728Z" host="app.diagrams.net" agent="5.0 (Windows NT 10.0; Win64; x64) AppleWebKit/537.36 (KHTML, like Gecko) Chrome/100.0.4896.127 Safari/537.36 Edg/100.0.1185.50" etag="WCPVZPLT8AO7Au7UCyJu" compressed="false" version="17.5.0" type="google">
  <diagram id="kKGeqiE59nZLLjwZdQFm" name="WorkItem Management">
    <mxGraphModel grid="1" page="1" gridSize="10" guides="1" tooltips="1" connect="1" arrows="1" fold="1" pageScale="1" pageWidth="827" pageHeight="1169" math="0" shadow="0">
      <root>
        <mxCell id="Dj_Ahap8n5cyeBH4Ejo4-0" />
        <mxCell id="Dj_Ahap8n5cyeBH4Ejo4-1" parent="Dj_Ahap8n5cyeBH4Ejo4-0" />
        <UserObject label="" tooltip="ABOUT&#xa;&#xa;Whereas SDLC/Waterfall methodology recommended collecting Requirements from end users as Use Cases, the&#xa;&#xa;Agile Methodology recommends that Stakeholder desires are encoded as User/Stakeholder Stories.&#xa;&#xa;&#xa;&#xa;Use Cases used a combination of a very simple diagram, backed by a complete textual description of the various Flows the operation could take. &#xa;&#xa;&#xa;&#xa;Whereas User/Stakeholder stories are somewhat in the middle. A little more than a stick diagram, and quite a bit less formal and complete than Use Cases descriptions, using a simple format of &quot;As a &lt;role&gt; I want &lt;x&gt; so that &lt;y&gt;&quot; (or as I prefer, stating the value first, using ISO-25010 terms: &quot;Towards Security Quality Objectives, As a &lt;x&gt; I desire &lt;y&gt;&quot;).&#xa;&#xa;&#xa;&#xa;Either way, Stakeholder Stories have to be sized so that they can be developed, tested and delivered in a single Sprint (2 weeks max). &#xa;&#xa;&#xa;&#xa;Features are groups of Stakeholder Stories that should be delivered in one go -- but not all of them can be done within a sprint. They&#39;re often equivalent to Minor upgrades.&#xa;&#xa;&#xa;&#xa;Epics are long winded, major set of features. They&#39;re often equivalent to Major updates.&#xa;&#xa;&#xa;&#xa;Stakeholder Stories are sometimes broken down into a set of discrete Tasks.&#xa;&#xa;&#xa;&#xa;Note: Bugs/Defect reports often come in via feedback, and often get defined as a new Stakeholder Story before it is realised to be a defect to an existing Stakeholder stories -- at which point should be corrected/relinked.&#xa;&#xa;&#xa;&#xa;A good tip is to reference the Stakeholder story Id in the Message of Code commits (it makes it easier to trace code back to the Stakeholder story where it was defined." id="Dj_Ahap8n5cyeBH4Ejo4-2">
          <mxCell style="shape=image;html=1;verticalAlign=top;verticalLabelPosition=bottom;labelBackgroundColor=#ffffff;imageAspect=0;aspect=fixed;image=https://cdn1.iconfinder.com/data/icons/hawcons/32/699014-icon-28-information-128.png;shadow=0;dashed=0;fontFamily=Helvetica;fontSize=12;fontColor=#000000;align=center;strokeColor=#000000;fillColor=#505050;dashPattern=1 1;" vertex="1" parent="Dj_Ahap8n5cyeBH4Ejo4-1">
            <mxGeometry x="660" y="580" width="20" height="20" as="geometry" />
          </mxCell>
        </UserObject>
        <mxCell id="Dj_Ahap8n5cyeBH4Ejo4-3" value="qualifies" style="edgeStyle=elbowEdgeStyle;rounded=0;orthogonalLoop=1;jettySize=auto;html=1;entryX=0;entryY=0.5;entryDx=0;entryDy=0;fillColor=#ffffff;gradientColor=#FFE599;dashed=1;" edge="1" parent="Dj_Ahap8n5cyeBH4Ejo4-1" source="Dj_Ahap8n5cyeBH4Ejo4-28" target="Dj_Ahap8n5cyeBH4Ejo4-26">
          <mxGeometry relative="1" as="geometry" />
        </mxCell>
        <mxCell id="Dj_Ahap8n5cyeBH4Ejo4-4" style="edgeStyle=none;rounded=0;orthogonalLoop=1;jettySize=auto;html=1;entryX=1;entryY=0.5;entryDx=0;entryDy=0;dashed=1;fillColor=#ffffff;gradientColor=#FFE599;" edge="1" parent="Dj_Ahap8n5cyeBH4Ejo4-1" source="Dj_Ahap8n5cyeBH4Ejo4-13" target="Dj_Ahap8n5cyeBH4Ejo4-16">
          <mxGeometry relative="1" as="geometry" />
        </mxCell>
        <mxCell id="Dj_Ahap8n5cyeBH4Ejo4-5" value="(ref)" style="edgeStyle=elbowEdgeStyle;rounded=0;orthogonalLoop=1;jettySize=auto;html=1;entryX=1;entryY=0.75;entryDx=0;entryDy=0;dashed=1;fillColor=#ffffff;gradientColor=#FFE599;" edge="1" parent="Dj_Ahap8n5cyeBH4Ejo4-1" source="Dj_Ahap8n5cyeBH4Ejo4-13" target="Dj_Ahap8n5cyeBH4Ejo4-23">
          <mxGeometry x="-0.3846" relative="1" as="geometry">
            <mxPoint as="offset" />
          </mxGeometry>
        </mxCell>
        <mxCell id="Dj_Ahap8n5cyeBH4Ejo4-6" value="addresses" style="edgeStyle=elbowEdgeStyle;rounded=0;orthogonalLoop=1;jettySize=auto;html=1;entryX=0.5;entryY=1;entryDx=0;entryDy=0;dashed=1;fillColor=#ffffff;gradientColor=#FFE599;" edge="1" parent="Dj_Ahap8n5cyeBH4Ejo4-1" source="Dj_Ahap8n5cyeBH4Ejo4-13" target="Dj_Ahap8n5cyeBH4Ejo4-15">
          <mxGeometry relative="1" as="geometry" />
        </mxCell>
        <mxCell id="Dj_Ahap8n5cyeBH4Ejo4-7" style="edgeStyle=none;rounded=0;orthogonalLoop=1;jettySize=auto;html=1;entryX=0.5;entryY=0;entryDx=0;entryDy=0;dashed=1;fillColor=#ffffff;gradientColor=#FFE599;" edge="1" parent="Dj_Ahap8n5cyeBH4Ejo4-1" source="Dj_Ahap8n5cyeBH4Ejo4-8" target="Dj_Ahap8n5cyeBH4Ejo4-28">
          <mxGeometry relative="1" as="geometry" />
        </mxCell>
        <mxCell id="Dj_Ahap8n5cyeBH4Ejo4-8" value="Test Analyst" style="shape=image;html=1;verticalAlign=top;verticalLabelPosition=bottom;labelBackgroundColor=#ffffff;imageAspect=0;aspect=fixed;image=https://cdn0.iconfinder.com/data/icons/elasto-online-store/26/00-ELASTOFONT-STORE-READY_user-128.png;rounded=0;" vertex="1" parent="Dj_Ahap8n5cyeBH4Ejo4-1">
          <mxGeometry x="150" y="360" width="20" height="20" as="geometry" />
        </mxCell>
        <mxCell id="Dj_Ahap8n5cyeBH4Ejo4-9" style="edgeStyle=none;rounded=0;orthogonalLoop=1;jettySize=auto;html=1;entryX=0.5;entryY=0;entryDx=0;entryDy=0;dashed=1;fillColor=#ffffff;gradientColor=#FFE599;" edge="1" parent="Dj_Ahap8n5cyeBH4Ejo4-1" source="Dj_Ahap8n5cyeBH4Ejo4-10" target="Dj_Ahap8n5cyeBH4Ejo4-25">
          <mxGeometry relative="1" as="geometry" />
        </mxCell>
        <mxCell id="Dj_Ahap8n5cyeBH4Ejo4-10" value="Stakeholder Analyst" style="shape=image;html=1;verticalAlign=top;verticalLabelPosition=bottom;labelBackgroundColor=#ffffff;imageAspect=0;aspect=fixed;image=https://cdn0.iconfinder.com/data/icons/elasto-online-store/26/00-ELASTOFONT-STORE-READY_user-128.png;rounded=0;" vertex="1" parent="Dj_Ahap8n5cyeBH4Ejo4-1">
          <mxGeometry x="350" y="140" width="20" height="20" as="geometry" />
        </mxCell>
        <mxCell id="Dj_Ahap8n5cyeBH4Ejo4-11" value="&lt;font style=&quot;font-size: 12px&quot;&gt;Delivery - WorkIems Management&lt;/font&gt;" style="text;html=1;fontSize=12;fontStyle=2" vertex="1" parent="Dj_Ahap8n5cyeBH4Ejo4-1">
          <mxGeometry x="120" y="580" width="480" height="20" as="geometry" />
        </mxCell>
        <mxCell id="Dj_Ahap8n5cyeBH4Ejo4-12" style="edgeStyle=elbowEdgeStyle;rounded=0;orthogonalLoop=1;jettySize=auto;html=1;entryX=1;entryY=0.5;entryDx=0;entryDy=0;fontSize=8;dashed=1;exitX=0;exitY=0.5;exitDx=0;exitDy=0;" edge="1" parent="Dj_Ahap8n5cyeBH4Ejo4-1" source="Dj_Ahap8n5cyeBH4Ejo4-13" target="Dj_Ahap8n5cyeBH4Ejo4-26">
          <mxGeometry relative="1" as="geometry">
            <mxPoint x="200" y="310" as="sourcePoint" />
            <mxPoint x="360" y="310" as="targetPoint" />
          </mxGeometry>
        </mxCell>
        <mxCell id="Dj_Ahap8n5cyeBH4Ejo4-13" value="Code Commits" style="rounded=0;whiteSpace=wrap;html=1;strokeWidth=1;fillColor=none;fontSize=12;align=center;opacity=30;horizontal=1;verticalAlign=top;arcSize=6;container=0;absoluteArcSize=1;recursiveResize=0;" vertex="1" parent="Dj_Ahap8n5cyeBH4Ejo4-1">
          <mxGeometry x="440" y="520" width="80" height="40" as="geometry" />
        </mxCell>
        <mxCell id="Dj_Ahap8n5cyeBH4Ejo4-14" value="proven by" style="html=1;endArrow=diamondThin;endFill=1;endSize=10;strokeColor=#000000;fontSize=10;entryX=0.5;entryY=1;entryDx=0;entryDy=0;exitX=0.5;exitY=0;exitDx=0;exitDy=0;" edge="1" parent="Dj_Ahap8n5cyeBH4Ejo4-1" source="Dj_Ahap8n5cyeBH4Ejo4-26" target="Dj_Ahap8n5cyeBH4Ejo4-23">
          <mxGeometry width="160" relative="1" as="geometry">
            <mxPoint x="450" y="430" as="sourcePoint" />
            <mxPoint x="340" y="360" as="targetPoint" />
          </mxGeometry>
        </mxCell>
        <mxCell id="Dj_Ahap8n5cyeBH4Ejo4-15" value="Defect" style="rounded=0;whiteSpace=wrap;html=1;strokeWidth=1;fillColor=none;fontSize=12;align=center;opacity=30;horizontal=1;verticalAlign=top;arcSize=6;container=0;absoluteArcSize=1;recursiveResize=0;" vertex="1" parent="Dj_Ahap8n5cyeBH4Ejo4-1">
          <mxGeometry x="440" y="320" width="80" height="40" as="geometry" />
        </mxCell>
        <mxCell id="Dj_Ahap8n5cyeBH4Ejo4-16" value="(Sub) Task" style="rounded=0;whiteSpace=wrap;html=1;strokeWidth=1;fillColor=none;fontSize=12;align=center;opacity=30;horizontal=1;verticalAlign=top;arcSize=6;container=0;absoluteArcSize=1;recursiveResize=0;" vertex="1" parent="Dj_Ahap8n5cyeBH4Ejo4-1">
          <mxGeometry x="320" y="520" width="80" height="40" as="geometry" />
        </mxCell>
        <mxCell id="Dj_Ahap8n5cyeBH4Ejo4-17" value="" style="html=1;endArrow=diamondThin;endFill=1;edgeStyle=elbowEdgeStyle;endSize=10;strokeColor=#000000;fontSize=10;entryX=0.5;entryY=1;entryDx=0;entryDy=0;exitX=0;exitY=0.5;exitDx=0;exitDy=0;rounded=0;" edge="1" parent="Dj_Ahap8n5cyeBH4Ejo4-1" source="Dj_Ahap8n5cyeBH4Ejo4-22" target="Dj_Ahap8n5cyeBH4Ejo4-21">
          <mxGeometry width="160" relative="1" as="geometry">
            <mxPoint x="180" y="530" as="sourcePoint" />
            <mxPoint x="340" y="530" as="targetPoint" />
            <Array as="points">
              <mxPoint x="160" y="270" />
            </Array>
          </mxGeometry>
        </mxCell>
        <mxCell id="Dj_Ahap8n5cyeBH4Ejo4-18" value="" style="html=1;endArrow=diamondThin;endFill=1;edgeStyle=elbowEdgeStyle;elbow=vertical;endSize=10;strokeColor=#000000;fontSize=10;entryX=0.5;entryY=1;entryDx=0;entryDy=0;exitX=0;exitY=0.25;exitDx=0;exitDy=0;rounded=0;" edge="1" parent="Dj_Ahap8n5cyeBH4Ejo4-1" source="Dj_Ahap8n5cyeBH4Ejo4-23" target="Dj_Ahap8n5cyeBH4Ejo4-22">
          <mxGeometry width="160" relative="1" as="geometry">
            <mxPoint x="340" y="340" as="sourcePoint" />
            <mxPoint x="260" y="280" as="targetPoint" />
            <Array as="points">
              <mxPoint x="270" y="330" />
            </Array>
          </mxGeometry>
        </mxCell>
        <mxCell id="Dj_Ahap8n5cyeBH4Ejo4-19" value="addressed by" style="html=1;endArrow=diamondThin;endFill=1;endSize=10;strokeColor=#000000;fontSize=10;entryX=0.5;entryY=1;entryDx=0;entryDy=0;exitX=0.5;exitY=0;exitDx=0;exitDy=0;rounded=0;" edge="1" parent="Dj_Ahap8n5cyeBH4Ejo4-1" source="Dj_Ahap8n5cyeBH4Ejo4-16" target="Dj_Ahap8n5cyeBH4Ejo4-26">
          <mxGeometry width="160" relative="1" as="geometry">
            <mxPoint x="330" y="310" as="sourcePoint" />
            <mxPoint x="380" y="320" as="targetPoint" />
          </mxGeometry>
        </mxCell>
        <mxCell id="Dj_Ahap8n5cyeBH4Ejo4-20" value="" style="html=1;endArrow=diamondThin;endFill=0;elbow=vertical;endSize=10;strokeColor=#000000;fontSize=10;entryX=1;entryY=0.5;entryDx=0;entryDy=0;exitX=0;exitY=0.5;exitDx=0;exitDy=0;" edge="1" parent="Dj_Ahap8n5cyeBH4Ejo4-1" source="Dj_Ahap8n5cyeBH4Ejo4-15" target="Dj_Ahap8n5cyeBH4Ejo4-23">
          <mxGeometry width="160" relative="1" as="geometry">
            <mxPoint x="420" y="330" as="sourcePoint" />
            <mxPoint x="400" y="340" as="targetPoint" />
          </mxGeometry>
        </mxCell>
        <mxCell id="Dj_Ahap8n5cyeBH4Ejo4-21" value="Epic" style="rounded=0;whiteSpace=wrap;html=1;strokeWidth=1;fillColor=none;fontSize=12;align=center;opacity=30;horizontal=1;verticalAlign=top;arcSize=6;container=0;absoluteArcSize=1;recursiveResize=0;" vertex="1" parent="Dj_Ahap8n5cyeBH4Ejo4-1">
          <mxGeometry x="120" y="200" width="80" height="40" as="geometry" />
        </mxCell>
        <mxCell id="Dj_Ahap8n5cyeBH4Ejo4-22" value="Feature" style="rounded=0;whiteSpace=wrap;html=1;strokeWidth=1;fillColor=none;fontSize=12;align=center;opacity=30;horizontal=1;verticalAlign=top;arcSize=6;container=0;absoluteArcSize=1;recursiveResize=0;" vertex="1" parent="Dj_Ahap8n5cyeBH4Ejo4-1">
          <mxGeometry x="220" y="260" width="80" height="40" as="geometry" />
        </mxCell>
        <mxCell id="Dj_Ahap8n5cyeBH4Ejo4-23" value="&lt;p style=&quot;line-height: 90%&quot;&gt;User / Stakeholder Story&lt;/p&gt;" style="rounded=0;whiteSpace=wrap;html=1;strokeWidth=1;fillColor=none;fontSize=12;align=center;opacity=30;horizontal=1;verticalAlign=middle;arcSize=6;container=0;absoluteArcSize=1;recursiveResize=0;labelPosition=center;verticalLabelPosition=middle;" vertex="1" parent="Dj_Ahap8n5cyeBH4Ejo4-1">
          <mxGeometry x="320" y="320" width="80" height="40" as="geometry" />
        </mxCell>
        <mxCell id="Dj_Ahap8n5cyeBH4Ejo4-24" style="rounded=1;orthogonalLoop=1;jettySize=auto;html=1;fontSize=10;strokeColor=#B3B3B3;entryX=0.5;entryY=0;entryDx=0;entryDy=0;dashed=1;exitX=0.5;exitY=1;exitDx=0;exitDy=0;" edge="1" parent="Dj_Ahap8n5cyeBH4Ejo4-1" source="Dj_Ahap8n5cyeBH4Ejo4-25" target="Dj_Ahap8n5cyeBH4Ejo4-23">
          <mxGeometry relative="1" as="geometry" />
        </mxCell>
        <mxCell id="Dj_Ahap8n5cyeBH4Ejo4-25" value="Functional&lt;br&gt;Requirements" style="rounded=0;whiteSpace=wrap;html=1;strokeWidth=1;fillColor=none;fontSize=12;align=center;opacity=30;horizontal=1;verticalAlign=top;arcSize=6;container=0;absoluteArcSize=1;recursiveResize=0;" vertex="1" parent="Dj_Ahap8n5cyeBH4Ejo4-1">
          <mxGeometry x="320" y="200" width="80" height="40" as="geometry" />
        </mxCell>
        <mxCell id="Dj_Ahap8n5cyeBH4Ejo4-26" value="Functional Test Definition&amp;nbsp; (GWT)" style="rounded=0;whiteSpace=wrap;html=1;strokeWidth=1;fillColor=none;fontSize=12;align=center;opacity=30;horizontal=1;verticalAlign=top;arcSize=6;container=0;absoluteArcSize=1;recursiveResize=0;" vertex="1" parent="Dj_Ahap8n5cyeBH4Ejo4-1">
          <mxGeometry x="320" y="400" width="80" height="80" as="geometry" />
        </mxCell>
        <mxCell id="Dj_Ahap8n5cyeBH4Ejo4-27" value="" style="html=1;endArrow=diamondThin;endFill=0;elbow=vertical;endSize=10;strokeColor=#000000;fontSize=10;entryX=1;entryY=0.25;entryDx=0;entryDy=0;exitX=0.859;exitY=0.031;exitDx=0;exitDy=0;exitPerimeter=0;" edge="1" parent="Dj_Ahap8n5cyeBH4Ejo4-1" source="Dj_Ahap8n5cyeBH4Ejo4-23" target="Dj_Ahap8n5cyeBH4Ejo4-23">
          <mxGeometry width="160" relative="1" as="geometry">
            <mxPoint x="430" y="360" as="sourcePoint" />
            <mxPoint x="410" y="360" as="targetPoint" />
            <Array as="points">
              <mxPoint x="389" y="300" />
              <mxPoint x="420" y="300" />
              <mxPoint x="420" y="330" />
            </Array>
          </mxGeometry>
        </mxCell>
        <mxCell id="Dj_Ahap8n5cyeBH4Ejo4-28" value="&lt;p style=&quot;line-height: 100%&quot;&gt;Quality Requirements&lt;/p&gt;" style="rounded=0;whiteSpace=wrap;html=1;strokeWidth=1;fillColor=none;fontSize=12;align=center;opacity=30;horizontal=1;verticalAlign=middle;arcSize=6;container=0;absoluteArcSize=1;recursiveResize=0;labelPosition=center;verticalLabelPosition=middle;" vertex="1" parent="Dj_Ahap8n5cyeBH4Ejo4-1">
          <mxGeometry x="120" y="420" width="80" height="40" as="geometry" />
        </mxCell>
        <mxCell id="Dj_Ahap8n5cyeBH4Ejo4-29" value="&lt;p style=&quot;margin: 4px 0px 0px ; text-align: center ; font-size: 10px&quot;&gt;&amp;lt;&amp;lt;requirement&amp;gt;&amp;gt;&lt;br style=&quot;font-size: 10px&quot;&gt;&lt;b style=&quot;font-size: 10px&quot;&gt;SREQ-xxxx&lt;/b&gt;&lt;/p&gt;&lt;hr style=&quot;font-size: 10px&quot;&gt;&lt;p style=&quot;font-size: 10px&quot;&gt;&lt;/p&gt;&lt;p style=&quot;margin: 0px 0px 0px 8px ; text-align: left ; font-size: 10px&quot;&gt;Stakeholder Stories must define &lt;br&gt;- What is the &lt;u&gt;Role&lt;/u&gt; of the person who desires the outcome,&amp;nbsp;&lt;/p&gt;&lt;p style=&quot;margin: 0px 0px 0px 8px ; text-align: left ; font-size: 10px&quot;&gt;- Why will this desired effort add&amp;nbsp;&lt;u&gt;Value&lt;/u&gt;&amp;nbsp;(consider using only ISO-25010 and ISO-25012 terms)&lt;/p&gt;&lt;p style=&quot;margin: 0px 0px 0px 8px ; text-align: left ; font-size: 10px&quot;&gt;- What is a SMART definition of the desired outcome.&lt;/p&gt;&lt;p style=&quot;margin: 0px 0px 0px 8px ; text-align: left ; font-size: 10px&quot;&gt;&lt;br&gt;&lt;/p&gt;&lt;p style=&quot;margin: 0px 0px 0px 8px ; text-align: left ; font-size: 10px&quot;&gt;- Constraints:&amp;nbsp;&lt;span&gt;the new Stakeholder story needs to be cross related against agreed Obligations (ie prior Decisions and/or Requirements)&lt;/span&gt;&lt;/p&gt;&lt;p style=&quot;margin: 0px 0px 0px 8px ; text-align: left ; font-size: 10px&quot;&gt;&lt;span&gt;&lt;br&gt;&lt;/span&gt;&lt;/p&gt;&lt;p style=&quot;margin: 0px 0px 0px 8px ; text-align: left ; font-size: 10px&quot;&gt;&lt;span&gt;- Acceptance Test Definitions: one or more definitions of Done for this task (often written in Gherkin&#39;s Given-When-Then syntax) such that developers can convert them to Automated Tests run by the Build pipeline.&amp;nbsp;&amp;nbsp;&lt;/span&gt;&lt;/p&gt;" style="shape=rect;overflow=fill;html=1;whiteSpace=wrap;align=center;labelBackgroundColor=none;strokeColor=#000000;strokeWidth=1;fillColor=#FFFFFF;gradientColor=none;fontFamily=Helvetica;fontSize=10;fontColor=#000000;opacity=30;" vertex="1" parent="Dj_Ahap8n5cyeBH4Ejo4-1">
          <mxGeometry x="540" y="200" width="140" height="370" as="geometry" />
        </mxCell>
      </root>
    </mxGraphModel>
  </diagram>
</mxfile>
